<svg width="510" height="500" viewBox="0 0 510 500" fill="none" xmlns="http://www.w3.org/2000/svg">
    <path fill-rule="evenodd" clip-rule="evenodd" d="M110.498 463.713C121.104 470.071 138.423 480.452 162.298 483.363C164.478 483.629 166.489 483.876 168.348 484.104C189.915 486.755 191.026 486.891 199.96 484.191C202.601 483.39 206.166 482.077 210.103 480.626C219.862 477.032 231.904 472.597 237.804 473.031C246.084 473.639 246.649 486.613 244.582 489.254C243.901 490.115 241.848 490.716 239.468 491.413C234.582 492.844 228.314 494.68 229.704 500C229.879 496.864 233.113 496.399 237.353 495.79C242.164 495.099 248.269 494.222 252.67 489.047C254.278 487.156 254.998 484.883 255 482.43C255.002 484.883 255.722 487.156 257.33 489.047C261.731 494.222 267.836 495.099 272.647 495.79C276.887 496.399 280.121 496.864 280.296 500C281.686 494.68 275.418 492.844 270.532 491.413C268.152 490.716 266.099 490.115 265.418 489.254C263.351 486.613 263.916 473.639 272.196 473.031C278.096 472.597 290.138 477.032 299.897 480.626C303.834 482.077 307.399 483.39 310.04 484.191C318.974 486.891 320.085 486.755 341.652 484.104C343.511 483.876 345.522 483.629 347.702 483.363C371.577 480.452 388.896 470.071 399.502 463.713C401.487 462.523 403.236 461.474 404.75 460.642C408.765 458.438 415.677 457.616 423.807 456.648C435.121 455.302 448.792 453.675 460.295 447.656C477.554 438.625 478.738 411.811 479.64 391.38C479.771 388.41 479.896 385.574 480.064 382.947C481.205 365.095 490.327 361.133 503.455 355.433C505.541 354.528 507.728 353.578 510 352.522C493.428 348.262 472.349 356.781 466.508 373.211C463.105 382.785 463.35 390.842 463.55 397.426C463.693 402.141 463.813 406.1 462.555 409.32C459.538 417.024 448.061 410.744 448.061 410.744C448.061 410.744 460.114 403.442 458.036 379.71C456.127 357.797 461.759 345.223 466.929 333.681C467.358 332.722 467.784 331.771 468.203 330.822C470.597 325.392 476.58 321.916 482.829 318.285C490.824 313.64 499.253 308.743 501.155 299.18C503.657 286.599 497.95 273.574 493.123 262.559C491.413 258.656 489.813 255.005 488.729 251.716C484.583 239.144 510 222.301 510 222.301C510 222.301 486.085 227.57 479.127 236.503C473.998 243.067 476.215 252.491 478.419 261.861C479.211 265.225 480.001 268.582 480.448 271.797C482.143 283.967 474.8 311.557 467.83 305.472C462.804 301.084 462.871 290.368 462.947 278.038C462.977 273.269 463.008 268.257 462.747 263.278C461.809 245.424 452.772 232.244 444.672 223.116C436.572 213.988 435.262 191.68 445.045 180.119C454.828 168.557 457.279 157.202 454.647 148.269C452.015 139.349 441.091 136.708 429.794 135.089C418.498 133.47 406.829 122.517 407.393 111.966C407.958 101.414 418.882 95.9376 418.882 95.9376C418.882 95.9376 404.953 98.7732 398.356 106.891C391.77 115.008 396.47 126.156 406.456 135.698C416.431 145.227 426.982 156.789 428.111 168.764C429.241 180.727 414.747 189.855 408.907 185.401C406.891 183.859 405.392 180.988 403.564 177.489C400.099 170.854 395.453 161.959 383.863 155.584C372.953 149.583 366.051 150.438 357.072 151.55C351.482 152.243 345.086 153.035 336.417 152.334C313.824 150.509 307.419 141.381 299.895 126.168C292.361 110.956 315.146 89.2561 332.283 81.1386C337.147 78.8347 342.632 77.0543 348.063 75.2915C361.767 70.8435 375.125 66.5079 377.277 54.1573C380.293 36.9122 361.462 32.0441 351.86 33.6749C342.258 35.2935 325.685 32.8595 323.053 21.9063C320.421 10.9532 341.128 0 341.128 0C341.128 0 326.07 0.206891 313.259 16.0281C300.46 31.8494 313.259 42.4009 320.037 46.052C326.815 49.703 332.463 57.0052 329.831 63.0903C327.226 69.1126 314.652 73.1442 300.891 77.5564L300.46 77.6945C286.532 82.1609 273.349 100.002 275.981 139.361C278.187 172.339 299.177 182.524 312.565 189.02C315.151 190.275 317.452 191.391 319.28 192.508C330.577 199.409 353.17 201.429 387.06 200.212C417.65 199.113 429.832 272.056 433.302 292.83C433.676 295.071 433.949 296.705 434.132 297.573C436.019 306.494 435.42 347.179 413.042 383.982C366.895 459.902 350.23 462.217 327.719 465.344C325.735 465.619 323.706 465.901 321.607 466.24C319.642 466.556 317.631 466.264 315.812 465.4C309.317 462.285 292.587 455.08 280.115 457.003C267.377 458.963 255.006 472.237 255 482.415C254.994 472.237 242.623 458.963 229.885 457.003C217.413 455.08 200.683 462.285 194.188 465.4C192.369 466.264 190.358 466.556 188.393 466.24C186.294 465.901 184.265 465.619 182.281 465.344C159.77 462.217 143.105 459.902 96.9583 383.982C74.5798 347.179 73.9811 306.494 75.8676 297.573C76.0513 296.705 76.3242 295.071 76.6984 292.83C80.168 272.055 92.3503 199.113 122.94 200.212C156.83 201.429 179.423 199.409 190.72 192.508C192.548 191.391 194.849 190.275 197.435 189.02C210.823 182.524 231.813 172.339 234.019 139.361C236.651 100.002 223.468 82.1609 209.54 77.6945L209.109 77.5564C195.348 73.1442 182.774 69.1126 180.169 63.0903C177.537 57.0052 183.185 49.703 189.963 46.052C196.741 42.4009 209.54 31.8494 196.741 16.0281C183.93 0.206891 168.872 0 168.872 0C168.872 0 189.579 10.9532 186.947 21.9063C184.315 32.8595 167.742 35.2935 158.14 33.6749C148.538 32.0441 129.707 36.9122 132.723 54.1573C134.875 66.5079 148.233 70.8435 161.937 75.2915C167.368 77.0543 172.853 78.8347 177.717 81.1386C194.854 89.2561 217.639 110.956 210.105 126.168C202.581 141.381 196.176 150.509 173.583 152.334C164.914 153.035 158.518 152.243 152.928 151.55C143.949 150.438 137.047 149.583 126.137 155.584C114.547 161.959 109.901 170.854 106.436 177.489C104.608 180.988 103.109 183.859 101.093 185.401C95.2525 189.855 80.759 180.727 81.8887 168.764C83.0183 156.789 93.5693 145.227 103.544 135.698C113.53 126.156 118.23 115.008 111.644 106.891C105.047 98.7732 91.118 95.9376 91.118 95.9376C91.118 95.9376 102.042 101.414 102.607 111.966C103.171 122.517 91.5021 133.47 80.2055 135.089C68.909 136.708 57.9852 139.349 55.3531 148.269C52.721 157.202 55.1723 168.557 64.9552 180.119C74.738 191.68 73.4276 213.988 65.3279 223.116C57.2283 232.244 48.1911 245.424 47.2535 263.278C46.9919 268.257 47.0231 273.268 47.0527 278.038C47.1293 290.368 47.1959 301.084 42.17 305.472C35.2 311.557 27.8573 283.967 29.5518 271.797C29.9994 268.582 30.7892 265.225 31.5806 261.861C33.785 252.492 36.0022 243.067 30.8735 236.503C23.9148 227.57 0 222.301 0 222.301C0 222.301 25.4172 239.144 21.2714 251.716C20.1867 255.005 18.587 258.656 16.8768 262.559C12.0502 273.574 6.34287 286.599 8.84518 299.18C10.7473 308.743 19.1763 313.64 27.1709 318.285C33.4198 321.916 39.4035 325.392 41.7972 330.822C42.2156 331.771 42.6416 332.722 43.0709 333.681C48.2408 345.223 53.8729 357.797 51.9641 379.71C49.8856 403.442 61.939 410.744 61.939 410.744C61.939 410.744 50.4617 417.024 47.4455 409.32C46.1869 406.1 46.3072 402.141 46.4504 397.426C46.6503 390.842 46.895 382.785 43.4917 373.211C37.6514 356.781 16.572 348.262 0 352.522C2.27226 353.578 4.45935 354.528 6.54532 355.433C19.6728 361.133 28.7954 365.095 29.9359 382.947C30.1036 385.574 30.2288 388.41 30.36 391.38C31.2619 411.811 32.4456 438.625 49.7048 447.656C61.2077 453.675 74.8793 455.302 86.1928 456.648C94.3227 457.616 101.235 458.438 105.25 460.642C106.764 461.474 108.513 462.523 110.498 463.713Z" fill="url(#paint0_linear_22_11)"/>
    <defs>
        <linearGradient id="paint0_linear_22_11" x1="130.082" y1="0" x2="130.082" y2="500" gradientUnits="userSpaceOnUse">
            <stop offset="0.121077" stop-color="#20C0D6"/>
            <stop offset="0.323872" stop-color="#75EEFF"/>
            <stop offset="0.496954" stop-color="#22737F"/>
            <stop offset="0.653262" stop-color="#18363A"/>
            <stop offset="0.979167" stop-color="#061B22"/>
        </linearGradient>
    </defs>
</svg>
