<?xml version="1.0" encoding="utf-8"?>
<!-- Generator: Adobe Illustrator 26.0.3, SVG Export Plug-In . SVG Version: 6.00 Build 0)  -->
<svg version="1.1" id="Layer_3" xmlns="http://www.w3.org/2000/svg" xmlns:xlink="http://www.w3.org/1999/xlink" x="0px" y="0px"
     viewBox="0 0 1000 1000" style="enable-background:new 0 0 1000 1000;" xml:space="preserve">
<style type="text/css">
	.st0{fill:url(#SVGID_1_);}
</style>
    <linearGradient id="SVGID_1_" gradientUnits="userSpaceOnUse" x1="494.6805" y1="126.545" x2="503.17" y2="872.4492">
	<stop  offset="0" style="stop-color:#EE0509"/>
        <stop  offset="0.0338" style="stop-color:#EF0C09"/>
        <stop  offset="0.0842" style="stop-color:#F1210B"/>
        <stop  offset="0.1446" style="stop-color:#F4420D"/>
        <stop  offset="0.1927" style="stop-color:#F7610F"/>
        <stop  offset="0.4486" style="stop-color:#C5310B"/>
        <stop  offset="0.647" style="stop-color:#A61308"/>
        <stop  offset="0.757" style="stop-color:#9A0707"/>
</linearGradient>
    <path class="st0" d="M807.51,571.72c3.32,25.98-17.8,28.74-20.78,20.78c-2.98-7.96,7.74-23.1,20.17-45.65
	c12.44-22.55,5.69-50.85,4.7-67.76c-0.99-16.91-23.49-61.9-23.27-57.26s-0.83,6.63,2.65,31.17s-6.49,46-7.13,47.5
	c-0.64,1.5-6.3,11.52-11.77-5.39c-5.47-16.91,11.94-57.7,11.44-66.65c-0.5-8.95-11.94-45.26-14.92-52.73
	c-2.98-7.46-11.94-15.42-26.86-19.4c1.49,5.47,7.46,19.4,6.82,37.8c-0.64,18.4-13.54,14.34-17.35,7.46s-2.82-27.27-2.82-35.73
	s-7.46-29.1-11.77-37.89s-29.02-22.55-29.76-19.65c-0.75,2.9,12.1,22.63,1.16,43.03c-8.95-7.13-17.74-21.22-34.32-42.28
	s-26.69-7.79-52.89-37.31c-26.2-29.51-25.7-65.16-24.7-75.11c0.99-9.95,17.3-25.87,28.35-26.86s15.7,2.1,37.31,21.39
	c6.96-19.4-12.05-47.59-22.49-53.55c-10.45-5.97-34.71-20.78-53.28,2.65s-18.4,47.42-14.09,97.33
	c4.31,49.91,93.07,128.72,146.29,179.45c53.22,50.74,52.26,160.19,50.02,162.27c-0.82,0.75-2.23-3.34-4.48-6.55
	c-2.41-3.46-7.17-6.56-7.04-5.92c1.76,1.49,4.18,5.92,5.48,9c5.31,12.6-0.42,58.96-17.01,74.43
	c-16.58,15.47-61.68,26.53-123.36,48.41c-47.09,28.52-38.47,55.71-37.14,49.74c1.33-5.97,29.18-17.24,28.52-7.3
	c-0.66,9.95-93.18,53.39-93.18,53.39s-92.52-43.44-93.18-53.39c-0.66-9.95,27.19,1.33,28.52,7.3c1.33,5.97,9.95-21.22-37.14-49.74
	c-61.68-21.89-106.78-32.94-123.36-48.41c-16.58-15.48-22.31-61.83-17.01-74.43c1.3-3.08,3.72-7.51,5.48-9
	c0.13-0.64-4.63,2.46-7.04,5.92c-2.24,3.22-3.66,7.31-4.48,6.55c-2.24-2.07-3.21-111.53,50.02-162.27
	c53.22-50.74,141.98-129.55,146.29-179.45c4.31-49.91,4.48-73.89-14.09-97.33s-42.83-8.62-53.28-2.65
	c-10.45,5.97-29.46,34.16-22.49,53.55c21.61-19.29,26.25-22.38,37.31-21.39s27.36,16.91,28.35,26.86c0.99,9.95,1.49,45.6-24.7,75.11
	c-26.2,29.51-36.31,16.25-52.89,37.31s-25.37,35.15-34.32,42.28c-10.94-20.39,1.91-40.12,1.16-43.03
	c-0.75-2.9-25.45,10.86-29.76,19.65s-11.77,29.43-11.77,37.89s0.99,28.85-2.82,35.73s-16.71,10.94-17.35-7.46
	c-0.64-18.4,5.33-32.33,6.82-37.8c-14.92,3.98-23.88,11.94-26.86,19.4c-2.98,7.46-14.42,43.77-14.92,52.73
	c-0.5,8.95,16.91,49.74,11.44,66.65c-5.47,16.91-11.13,6.89-11.77,5.39c-0.64-1.5-10.61-22.96-7.13-47.5s2.43-26.53,2.65-31.17
	s-22.27,40.35-23.27,57.26c-0.99,16.91-7.74,45.21,4.7,67.76c12.44,22.55,23.16,37.69,20.17,45.65c-2.98,7.96-24.1,5.2-20.78-20.78
	c3.32-25.98-10.83,4.75-10.83,21.89c0,17.13,2.98,53.22,33.82,68.64s70.13,52.06,68.64,57.04c-1.49,4.97-10.39,63.45-4.2,61.9
	c6.19-1.55,22-27.3,35.54-30.89s32.33,7.46,43.77,17.41c11.44,9.95,57.75,19.56,67.7,26.53c9.95,6.96,26.03,28.35,32.5,35.81
	c6.47,7.46,40.57,42.45,40.57,42.45s34.1-34.98,40.57-42.45c6.47-7.46,22.55-28.85,32.5-35.81c9.95-6.96,56.26-16.58,67.7-26.53
	c11.44-9.95,30.23-21,43.77-17.41s29.35,29.35,35.54,30.89c6.19,1.55-2.71-56.93-4.2-61.9c-1.49-4.97,37.8-41.62,68.64-57.04
	s33.82-51.51,33.82-68.64C818.34,576.47,804.19,545.74,807.51,571.72z"/>
</svg>
